<?xml version="1.0" encoding="utf-8"?>
<!-- Generator: Adobe Illustrator 21.0.0, SVG Export Plug-In . SVG Version: 6.00 Build 0)  -->
<svg version="1.1" id="Layer_1" xmlns="http://www.w3.org/2000/svg" xmlns:xlink="http://www.w3.org/1999/xlink" x="0px" y="0px"
	 width="1400px" height="980px" viewBox="0 0 1400 980" enable-background="new 0 0 1400 980" xml:space="preserve">
<g>
	<g>
		<g>
			<linearGradient id="XMLID_362_" gradientUnits="userSpaceOnUse" x1="700" y1="1150.9352" x2="700" y2="130.7935">
				<stop  offset="0" style="stop-color:#A6BACA"/>
				<stop  offset="0.5" style="stop-color:#799CB4"/>
				<stop  offset="0.5887" style="stop-color:#7499B2"/>
				<stop  offset="1" style="stop-color:#5F8CA7"/>
			</linearGradient>
			<rect id="XMLID_353_" fill="url(#XMLID_362_)" width="1400" height="980"/>
		</g>
	</g>
	<path id="XMLID_360_" fill="#B1C0C9" d="M632.8,543.1c13.4,0,26.4,0.6,39,1.7c-3.7-7.7-5.8-15.9-5.8-24.5c0-2.1,0.2-4.2,0.4-6.3
		c-22-4.7-38.5-24.4-38.5-48c0-27.1,21.7-49,48.5-49c22.5,0,41.4,15.4,46.9,36.4c14.5-5.3,31-8.4,48.5-8.4
		c54.5,0,99.4,29.3,105.2,67c10.7-3.7,22.8-5.7,35.6-5.7c12.6,0,24.5,2,35.1,5.5c-0.1-1.8-0.2-3.7-0.2-5.5
		c0-49.3,47.2-89.3,105.4-89.3c14.4,0,28.1,2.4,40.6,6.9c-4.9-13.9-7.5-28.5-7.5-43.6c0-89.9,92.3-162.8,206.1-162.8
		c39.6,0,76.5,8.8,107.9,24.1v333.8H481.8C516.3,555.7,571.1,543.1,632.8,543.1z"/>
	<g id="XMLID_357_">
		<polygon id="XMLID_359_" fill="#7087BA" points="1361.8,847.5 1361.8,808.1 1349.7,813.5 1348.7,888.3 1325.8,888.3 1325.8,857.9 
			1311.9,853.9 1311.9,790.4 1289.9,790.4 1289.9,733.9 1272.4,741.6 1271.1,849.1 1261.7,849.1 1261.7,847.5 1246.3,847.5 
			1246.3,808.1 1238.1,811.8 1238.1,805.4 1210.7,797.6 1210.7,836 1197,836 1197,772.9 1178.9,772.9 1178.9,790.4 1174.3,790.4 
			1174.3,733.9 1156.9,741.6 1155.6,849.1 1122.6,849.1 1122.6,805.4 1095.2,797.6 1095.2,836 1081.5,836 1081.5,772.9 
			1063.4,772.9 1063.4,836 1056.3,836 1056.3,796.6 1035,796.6 1035,741.9 1018.1,749.4 1016.8,853.4 984.9,853.4 984.9,811.1 
			965.7,805.6 965.7,717.3 935,717.3 935,638.8 910.8,649.6 908.9,798.9 895.9,798.9 895.9,796.6 874.6,796.6 874.6,741.9 
			863.1,747 863.1,738.1 825.1,727.3 825.1,780.6 806.1,780.6 806.1,693 781,693 781,717.3 774.6,717.3 774.6,638.8 750.4,649.6 
			748.5,798.9 703.4,798.9 703.4,789.1 702.7,789.4 702.7,738.1 664.7,727.3 664.7,780.6 645.7,780.6 645.7,693 620.5,693 
			620.5,769.4 603.5,769.4 603.5,706.6 579.2,715.2 577.4,834.7 564.3,834.7 564.3,832.9 543,832.9 543,789.1 531.5,793.2 
			531.5,786.1 493.5,777.4 493.5,820.1 474.6,820.1 474.6,750 449.4,750 449.4,769.4 443.1,769.4 443.1,706.6 418.8,715.2 
			417,834.7 371.1,834.7 371.1,786.1 333.1,777.4 333.1,820.1 314.1,820.1 314.1,750 289,750 289,820.1 279.1,820.1 279.1,970 
			428.8,970 439.5,970 473.7,970 564.3,970 589.3,970 610.7,970 634.1,970 724.7,970 760.4,970 771.1,970 805.2,970 832.6,970 
			840.3,970 864.8,970 895.9,970 920.8,970 930.1,970 948.1,970 965.7,970 980.3,970 1045.6,970 1056.3,970 1164.1,970 1171.8,970 
			1196.4,970 1261.7,970 1279.6,970 1311.9,970 1377.2,970 1377.2,847.5 		"/>
		<polygon id="XMLID_358_" fill="#556E93" points="1372,925.1 1372,910.3 1355.9,912.4 1354.6,940.5 1324.2,940.5 1324.2,929 
			1305.8,927.6 1305.8,903.7 1276.6,903.7 1276.6,882.4 1253.4,885.4 1251.7,925.7 1239.2,925.7 1239.2,925.1 1218.8,925.1 
			1218.8,910.3 1207.9,911.7 1207.9,909.3 1171.6,906.4 1171.6,920.8 1153.5,920.8 1153.5,897.1 1129.5,897.1 1129.5,903.7 
			1123.4,903.7 1123.4,882.4 1100.3,885.4 1098.5,925.7 1054.7,925.7 1054.7,909.3 1018.5,906.4 1018.5,920.8 1000.3,920.8 
			1000.3,897.1 976.3,897.1 976.3,920.8 966.9,920.8 966.9,906 938.6,906 938.6,885.5 916.3,888.3 914.5,927.3 872.2,927.3 
			872.2,911.4 846.7,909.4 846.7,876.2 806.1,876.2 806.1,846.7 774,850.8 771.5,906.9 754.2,906.9 754.2,906 725.9,906 
			725.9,885.5 710.7,887.4 710.7,884 660.4,880 660.4,900 635.2,900 635.2,867.1 601.8,867.1 601.8,876.2 593.4,876.2 593.4,846.7 
			561.3,850.8 558.8,906.9 498,906.9 498,884 447.6,880 447.6,900 422.5,900 422.5,867.1 394.6,867.1 394.6,851.3 344.7,851.3 
			344.7,889.1 307.1,889.1 307.1,866.1 231.7,870.7 231.7,896.9 137.1,896.9 137.1,832.6 89,828 89,861.8 28.3,861.8 28.3,970 
			376,970 376,970 574.6,970 588.7,970 634,970 754.2,970 787.3,970 846.7,970 966.9,970 1109.8,970 1120.1,970 1152.6,970 
			1239.2,970 1263,970 1305.8,970 1392.3,970 1392.3,925.1 		"/>
	</g>
	<path fill="#B1C0C9" d="M208,972.3h-33.1c28.9-68.1,46.3-160.6,25.2-280.6L137,826.3c0,0-24.3-50.8-2.2-97.2l-60.5,47.2
		c0,0,1.3-56.3,42-87.7L41,703.5c0,0,26.6-49.6,77.1-59.2l-73.9-20.8c0,0,46.2-32.2,95.5-18l-56.5-51.9c0,0,95.9-13.6,121,73.9
		c25.1-87.5,121-73.9,121-73.9l-56.5,51.9c49.4-14.2,95.5,18,95.5,18l-73.9,20.8c50.5,9.6,77.1,59.2,77.1,59.2l-75.3-14.8
		c40.7,31.4,42,87.7,42,87.7l-60.5-47.2c22.1,46.4-2.2,97.2-2.2,97.2l-64.5-137.6C220.7,739.5,244.3,858.1,208,972.3z"/>
	<path fill="#B1C0C9" d="M483.5,972.3h21.3c-18.6-43.8-29.7-103.2-16.2-180.3l40.6,86.5c0,0,15.6-32.6,1.4-62.4l38.8,30.4
		c0,0-0.8-36.2-27-56.3l48.4,9.5c0,0-17.1-31.9-49.5-38.1l47.4-13.4c0,0-29.6-20.7-61.4-11.6l36.3-33.4c0,0-61.6-8.7-77.7,47.5
		c-16.1-56.2-77.7-47.5-77.7-47.5l36.3,33.4c-31.7-9.1-61.4,11.6-61.4,11.6l47.4,13.4c-32.4,6.2-49.5,38.1-49.5,38.1l48.4-9.5
		c-26.1,20.2-27,56.3-27,56.3l38.8-30.4c-14.2,29.8,1.4,62.4,1.4,62.4l41.5-88.4C475.4,822.8,460.2,898.9,483.5,972.3z"/>
	<path fill="#B1C0C9" d="M1125.8,972.3h25.9c-22.6-53.3-36.2-125.7-19.7-219.6l49.4,105.3c0,0,19-39.7,1.7-76l47.3,37
		c0,0-1-44-32.8-68.6l58.9,11.6c0,0-20.8-38.8-60.3-46.4l57.8-16.3c0,0-36.1-25.2-74.7-14.1l44.2-40.6c0,0-75.1-10.6-94.7,57.8
		c-19.6-68.5-94.7-57.8-94.7-57.8l44.2,40.6c-38.6-11.1-74.7,14.1-74.7,14.1l57.8,16.3c-39.5,7.5-60.3,46.4-60.3,46.4l58.9-11.6
		c-31.8,24.6-32.8,68.6-32.8,68.6l47.3-37c-17.3,36.3,1.7,76,1.7,76l50.5-107.7C1116,790.2,1097.5,883,1125.8,972.3z"/>
	<path id="XMLID_1200_" fill="#B1C0C9" d="M374.7,310.3c-6.2,0-12.3,0.3-18.1,0.8c1.7-3.6,2.7-7.4,2.7-11.4c0-1-0.1-2-0.2-2.9
		c10.2-2.2,17.9-11.3,17.9-22.3c0-12.6-10.1-22.8-22.6-22.8c-10.4,0-19.2,7.2-21.8,16.9c-6.8-2.5-14.4-3.9-22.5-3.9
		c-25.3,0-46.2,13.6-48.9,31.1c-5-1.7-10.6-2.7-16.6-2.7c-5.9,0-11.4,0.9-16.3,2.6c0.1-0.9,0.1-1.7,0.1-2.6
		c0-22.9-21.9-41.5-49-41.5c-6.7,0-13,1.1-18.8,3.2c2.3-6.5,3.5-13.2,3.5-20.3c0-41.8-42.9-75.7-95.7-75.7
		c-18.4,0-35.6,4.1-50.1,11.2v155.1h426.6C428.9,316.2,403.4,310.3,374.7,310.3z"/>
	<g>
		<polygon fill="#9C8156" points="756.6,882.6 795.8,965.6 922.5,965.6 862.4,786.4 		"/>
		<polygon fill="#BC9F77" points="725.3,754 567.8,974 751.2,968 896.1,817.7 850.4,735.9 		"/>
		<path fill="#577483" d="M715.4,384.6l-31-87.1l31-12.9l-15.5-47.2c0,0,149.2-39,207.1,25.6c57.9,64.6,69.9,121.6,69.9,121.6
			l-54.4-34.5l31.9,96l-21,34.8l10.5,31.2l61.5,36l34.5,112.5c0,0-67.2,48-143.8,64.5C819.4,741.6,715.4,384.6,715.4,384.6z"/>
		<polygon fill="#B08874" points="720,531.4 557.9,628 507,600 467.9,606 425,608 431,639 456,639 475,667 467.9,671.3 481.8,683 
			572.5,660 756.6,586 		"/>
		<polygon fill="#577483" points="590.8,308 565,406 616.5,366.5 		"/>
		<path fill="#E0E9ED" d="M641.4,284.5l-46.1,83.1l96.3,268l8.7,142.8l206.8-2.1C907.1,776.2,786.8,432.5,641.4,284.5z"/>
		<polygon fill="#DFB28B" points="536,320.7 578,325.1 607.5,357.5 658,288.4 617.1,237.3 557.9,268 		"/>
		<path fill="#ECC19C" d="M515.5,165.2L505,198.2c0,0,3,4.2,3.9,9.3c0.9,5.1-8.4,12.6-8.4,12.6l-18.6,31.6l4.5,2.7
			c0,0,18.5-7.4,21.3-2.6c2.9,4.8-5.6,17.7-5.6,17.7l6.6,20.4l-13.1,32.8l23.2,6.3l70.9-34.9l1.6-39.7l30.2-11.5l12.2-68.7
			C634,174.4,540.2,138.7,515.5,165.2z"/>
		<path fill="#A46C35" d="M542.8,193.4l-34.7,3l3.2,7.6h14c0,0,11.8-8.8,24.4-3.8L542.8,193.4z"/>
		<polygon fill="#543E36" points="521.1,208.1 522,213.6 533.8,211.7 		"/>
		<polygon fill="#A46C35" points="536,274 507.7,251.9 503,262.6 506,259.2 504.8,262.6 516.7,266.5 519.9,264.1 518.5,267.2 		"/>
		<path fill="#A46C35" d="M508.7,290.1l8,24.4l25.9-12.2l-2.2-45.3l36.7-14.7l1-42l-12.8-8l0.8-30.9c0,0-36.8,15.2-57.9,17
			S494.8,197,494.8,197s-27.7-16.2-16.8-32.5c0,0-15.6-14.4-7.8-23.7c7.8-9.3,32.8-14.4,32.8-14.4s-21.3-9-8.4-21
			c0,0-1.8,13.8,15,12c16.8-1.8,110.9-18.9,135.9-1.5s7.8,34.3,7.8,34.3s7.2,12,8.7,27.4S640,213.6,640,213.6L621.7,243l-27.6,12.1
			l-4.2,39.1c0,0-19.3,60-109.5,45.6C480.3,339.8,489.4,298,508.7,290.1z"/>
		<path fill="#8E572A" d="M653.2,150.1c0,0,16.2-16-5.9-32.9c-12.6,9.2-29.9,18-53,22.3c0,0,31.6,10.6,47.4,6.5
			c0.4-0.1,0.7-0.2,0.9-0.3c0.3-0.1,0.6-0.2,0.9-0.3c0,0-0.3,0.1-0.9,0.3c-0.3,0.1-0.6,0.2-0.9,0.3c-6.2,1.7-27.9,6.4-57.7-1.5
			l29.5,14.5l-48.3,32.2l0,1l12.8,8l-1,42l-36.7,14.7l2.2,45.3l-25.9,12.2l-8-24.4c-19.4,8-28.4,49.8-28.4,49.8
			c90.2,14.4,109.5-45.6,109.5-45.6l4.2-39.1l27.6-12.1l18.3-29.5c0,0,23.4-20.7,21.9-36.1C660.4,162.1,653.2,150.1,653.2,150.1z"/>
		<path fill="#ECC19C" d="M597,202.4l-2.7,43.7c0,0,9.8-4.8,16-16C616.5,218.9,624.9,190.2,597,202.4z"/>
		<polygon fill="#B1C0C9" points="675.6,262.9 605.4,319.9 641.2,369.2 786.7,858.6 986.3,842.9 795.8,366.8 678.7,317.7 		"/>
		<polygon fill="#8EA3AE" points="675,482.9 722.7,643.4 971.7,806.6 896.3,617.9 885.7,644 808.1,630.4 717.1,490 		"/>
		<path fill="#577483" d="M705.9,329.1l-27.3-11.4c0,0-82.7,199.3,60.3,326.3h37C776,644,665.9,567.2,705.9,329.1z"/>
		<path fill="#ECC19C" d="M855,595L715.4,700.3L640,670l-49.2,17L570,713.5l6.8,2.8l20.7-17.8L619,694l1.3,22.8h5.3l2.8,13.8
			l-11.5,5.4l4.3,11.6l22.5-5v-4l81.6-14.2L885.7,644C885.7,644,890.3,601,855,595z"/>
		<path fill="#CF9E76" d="M717.1,713.3l-69.6,11.3l-5-17.8l-10,5.2l-2.5-15.5l6-3l-3.5-15l-13,11l-24.2,4l-4.5-6.5L570,713.5
			l6.8,2.8l20.7-17.8L619,694l1.3,22.8h5.3l2.8,13.8l-11.5,5.4l4.3,11.6l22.5-5v-4l81.6-14.2L885.7,644c0,0,1.4-12.7-3.1-25.3
			L717.1,713.3z"/>
		
			<rect x="451.5" y="525.8" transform="matrix(0.8819 -0.4714 0.4714 0.8819 -229.0921 286.9708)" fill="#C3D4CA" width="13.5" height="150"/>
		<path fill="#8EA3AE" d="M745.5,510.3l37.9-125.7C783.4,384.6,732,425,745.5,510.3z"/>
		<path fill="#8EA3AE" d="M808.1,630.4l54.1-69.6C830.4,571.5,808.1,630.4,808.1,630.4z"/>
		<path fill="#8EA3AE" d="M808.1,630.4l8.9-69.6C817,560.7,786.3,600.8,808.1,630.4z"/>
		<path fill="#8EA3AE" d="M745.5,510.3l80.5-59.8C781,444,745.5,510.3,745.5,510.3z"/>
		<polygon fill="#8EA3AE" points="605.4,319.9 630.6,354.6 662,366.5 		"/>
		<g>
			<path fill="#6A4542" d="M739.5,700.3c-1.9-3.3-5-5.4-8.5-6.1l-3.1-4.6l-13.3,8.3l1.5,4.6c-1.3,3.5-1.1,7.5,1,11
				c2,3.5,5.4,5.7,9.1,6.3l2.7,5l14.9-7.5l-3.2-6.4C741.7,707.3,741.4,703.5,739.5,700.3z"/>
			
				<ellipse transform="matrix(0.8634 -0.5046 0.5046 0.8634 -257.113 464.0504)" fill="#BC9F77" cx="728.3" cy="706.8" rx="10.3" ry="10.3"/>
		</g>
	</g>
	<path fill="#FFFFFF" d="M0,0v980h1400V0H0z M1371.7,891.9c0,37.8-30.6,68.4-68.4,68.4H96.6c-37.8,0-68.4-30.6-68.4-68.4V88.1
		c0-37.8,30.6-68.4,68.4-68.4h1206.7c37.8,0,68.4,30.6,68.4,68.4V891.9z"/>
</g>
</svg>
