<?xml version="1.0" encoding="utf-8"?>
<!-- Generator: Adobe Illustrator 21.0.0, SVG Export Plug-In . SVG Version: 6.00 Build 0)  -->
<svg version="1.1" id="Layer_1" xmlns="http://www.w3.org/2000/svg" xmlns:xlink="http://www.w3.org/1999/xlink" x="0px" y="0px"
	 width="1400px" height="980px" viewBox="0 0 1400 980" enable-background="new 0 0 1400 980" xml:space="preserve">
<g>
	<g>
		<g>
			<linearGradient id="XMLID_5_" gradientUnits="userSpaceOnUse" x1="700" y1="879" x2="700" y2="-129">
				<stop  offset="0" style="stop-color:#C8D9CE"/>
				<stop  offset="0.2786" style="stop-color:#A6BDC0"/>
				<stop  offset="0.7669" style="stop-color:#7399AD"/>
				<stop  offset="1" style="stop-color:#5F8CA7"/>
			</linearGradient>
			<rect id="XMLID_353_" fill="url(#XMLID_5_)" width="1400" height="980"/>
		</g>
	</g>
	<g id="XMLID_8_">
		<g id="XMLID_392_">
			<g id="XMLID_510_">
				<g id="XMLID_511_">
					<g id="XMLID_512_">
						<g id="XMLID_513_">
							<g id="XMLID_514_">
								<g id="XMLID_515_">
									<g id="XMLID_517_">
										<g id="XMLID_518_">
											<path id="XMLID_519_" fill="#FFFFFF" d="M978.2,143.6l-44.9-9.3c26.8-0.6,43.3,2.3,53.2,5.7c9.9-3.4,26.3-6.3,53.2-5.7
												l-44.9,9.3c4.5,2.5,5.9,4.6,5.9,4.6l-14.1-2.9l-14.1,2.9C972.4,148.2,973.7,146.1,978.2,143.6z"/>
										</g>
									</g>
								</g>
							</g>
						</g>
					</g>
				</g>
			</g>
			<g id="XMLID_501_">
				<g id="XMLID_502_">
					<g id="XMLID_503_">
						<g id="XMLID_504_">
							<g id="XMLID_505_">
								<g id="XMLID_506_">
									<g id="XMLID_507_">
										<g id="XMLID_508_">
											<path id="XMLID_509_" fill="#FFFFFF" d="M1052.4,263.9l-44.9-9.3c26.8-0.6,43.3,2.3,53.2,5.7c9.9-3.4,26.3-6.3,53.2-5.7
												l-44.9,9.3c4.5,2.5,5.9,4.6,5.9,4.6l-14.1-2.9l-14.1,2.9C1046.5,268.5,1047.8,266.4,1052.4,263.9z"/>
										</g>
									</g>
								</g>
							</g>
						</g>
					</g>
				</g>
			</g>
			<g id="XMLID_492_">
				<g id="XMLID_493_">
					<g id="XMLID_494_">
						<g id="XMLID_495_">
							<g id="XMLID_496_">
								<g id="XMLID_497_">
									<g id="XMLID_498_">
										<g id="XMLID_499_">
											<path id="XMLID_500_" fill="#FFFFFF" d="M940.8,233.7l-44.9-9.3c26.8-0.6,43.3,2.3,53.2,5.7c9.9-3.4,26.3-6.3,53.2-5.7
												l-44.9,9.3c4.5,2.5,5.9,4.6,5.9,4.6l-14.1-2.9l-14.1,2.9C935,238.3,936.3,236.2,940.8,233.7z"/>
										</g>
									</g>
								</g>
							</g>
						</g>
					</g>
				</g>
			</g>
			<g id="XMLID_483_">
				<g id="XMLID_484_">
					<g id="XMLID_485_">
						<g id="XMLID_486_">
							<g id="XMLID_487_">
								<g id="XMLID_488_">
									<g id="XMLID_489_">
										<g id="XMLID_490_">
											<path id="XMLID_491_" fill="#FFFFFF" d="M1036.4,193.1l-17.8-3.7c10.6-0.3,17.1,0.9,21,2.3c3.9-1.3,10.4-2.5,21-2.3
												l-17.8,3.7c1.8,1,2.3,1.8,2.3,1.8l-5.6-1.2l-5.6,1.2C1034,194.9,1034.6,194.1,1036.4,193.1z"/>
										</g>
									</g>
								</g>
							</g>
						</g>
					</g>
				</g>
			</g>
			<g id="XMLID_474_">
				<g id="XMLID_475_">
					<g id="XMLID_476_">
						<g id="XMLID_477_">
							<g id="XMLID_478_">
								<g id="XMLID_479_">
									<g id="XMLID_480_">
										<g id="XMLID_481_">
											<path id="XMLID_482_" fill="#FFFFFF" d="M833.9,149.1l-17.8-3.7c10.6-0.3,17.1,0.9,21,2.3c3.9-1.3,10.4-2.5,21-2.3
												l-17.8,3.7c1.8,1,2.3,1.8,2.3,1.8l-5.6-1.2l-5.6,1.2C831.6,151,832.1,150.1,833.9,149.1z"/>
										</g>
									</g>
								</g>
							</g>
						</g>
					</g>
				</g>
			</g>
			<g id="XMLID_465_">
				<g id="XMLID_466_">
					<g id="XMLID_467_">
						<g id="XMLID_468_">
							<g id="XMLID_469_">
								<g id="XMLID_470_">
									<g id="XMLID_471_">
										<g id="XMLID_472_">
											<path id="XMLID_473_" fill="#FFFFFF" d="M1117.6,135.2l-17.8-3.7c10.6-0.3,17.1,0.9,21,2.3c3.9-1.3,10.4-2.5,21-2.3
												l-17.8,3.7c1.8,1,2.3,1.8,2.3,1.8l-5.6-1.2l-5.6,1.2C1115.3,137,1115.8,136.2,1117.6,135.2z"/>
										</g>
									</g>
								</g>
							</g>
						</g>
					</g>
				</g>
			</g>
			<g id="XMLID_456_">
				<g id="XMLID_457_">
					<g id="XMLID_458_">
						<g id="XMLID_459_">
							<g id="XMLID_460_">
								<g id="XMLID_461_">
									<g id="XMLID_462_">
										<g id="XMLID_463_">
											<path id="XMLID_464_" fill="#FFFFFF" d="M1217.3,187.6l-17.8-3.7c10.6-0.3,17.1,0.9,21,2.3c3.9-1.3,10.4-2.5,21-2.3
												l-17.8,3.7c1.8,1,2.3,1.8,2.3,1.8l-5.6-1.2l-5.6,1.2C1215,189.4,1215.5,188.6,1217.3,187.6z"/>
										</g>
									</g>
								</g>
							</g>
						</g>
					</g>
				</g>
			</g>
			<g id="XMLID_447_">
				<g id="XMLID_448_">
					<g id="XMLID_449_">
						<g id="XMLID_450_">
							<g id="XMLID_451_">
								<g id="XMLID_452_">
									<g id="XMLID_453_">
										<g id="XMLID_454_">
											<path id="XMLID_455_" fill="#FFFFFF" d="M1062.9,219.6l-27-5.6c16.1-0.4,26,1.4,32,3.4c6-2,15.8-3.8,32-3.4l-27,5.6
												c2.7,1.5,3.5,2.8,3.5,2.8l-8.5-1.8l-8.5,1.8C1059.4,222.4,1060.2,221.2,1062.9,219.6z"/>
										</g>
									</g>
								</g>
							</g>
						</g>
					</g>
				</g>
			</g>
			<g id="XMLID_438_">
				<g id="XMLID_439_">
					<g id="XMLID_440_">
						<g id="XMLID_441_">
							<g id="XMLID_442_">
								<g id="XMLID_443_">
									<g id="XMLID_444_">
										<g id="XMLID_445_">
											<path id="XMLID_446_" fill="#FFFFFF" d="M986.3,211.4l-36.8-7.6c22-0.5,35.4,1.9,43.5,4.7c8.1-2.8,21.6-5.2,43.5-4.7
												l-36.8,7.6c3.7,2.1,4.8,3.8,4.8,3.8l-11.5-2.4l-11.5,2.4C981.5,215.2,982.6,213.5,986.3,211.4z"/>
										</g>
									</g>
								</g>
							</g>
						</g>
					</g>
				</g>
			</g>
			<g id="XMLID_429_">
				<g id="XMLID_430_">
					<g id="XMLID_431_">
						<g id="XMLID_432_">
							<g id="XMLID_433_">
								<g id="XMLID_434_">
									<g id="XMLID_435_">
										<g id="XMLID_436_">
											<path id="XMLID_437_" fill="#FFFFFF" d="M927.7,198l-54.5-11.3c32.6-0.8,52.5,2.8,64.5,6.9c12-4.1,32-7.7,64.5-6.9
												L947.7,198c5.5,3.1,7.1,5.6,7.1,5.6l-17.1-3.5l-17.1,3.5C920.5,203.6,922.2,201.1,927.7,198z"/>
										</g>
									</g>
								</g>
							</g>
						</g>
					</g>
				</g>
			</g>
			<g id="XMLID_420_">
				<g id="XMLID_421_">
					<g id="XMLID_422_">
						<g id="XMLID_423_">
							<g id="XMLID_424_">
								<g id="XMLID_425_">
									<g id="XMLID_426_">
										<g id="XMLID_427_">
											<path id="XMLID_428_" fill="#FFFFFF" d="M826.4,177.9l-54.5-11.3c32.6-0.8,52.5,2.8,64.5,6.9c12-4.1,32-7.7,64.5-6.9
												l-54.5,11.3c5.5,3.1,7.1,5.6,7.1,5.6l-17.1-3.5l-17.1,3.5C819.3,183.5,820.9,181,826.4,177.9z"/>
										</g>
									</g>
								</g>
							</g>
						</g>
					</g>
				</g>
			</g>
			<g id="XMLID_411_">
				<g id="XMLID_412_">
					<g id="XMLID_413_">
						<g id="XMLID_414_">
							<g id="XMLID_415_">
								<g id="XMLID_416_">
									<g id="XMLID_417_">
										<g id="XMLID_418_">
											<path id="XMLID_419_" fill="#FFFFFF" d="M1110.8,189.5l-54.5-11.3c32.6-0.8,52.5,2.8,64.5,6.9c12-4.1,32-7.7,64.5-6.9
												l-54.5,11.3c5.5,3.1,7.1,5.6,7.1,5.6l-17.1-3.5l-17.1,3.5C1103.7,195.1,1105.3,192.6,1110.8,189.5z"/>
										</g>
									</g>
								</g>
							</g>
						</g>
					</g>
				</g>
			</g>
			<g id="XMLID_402_">
				<g id="XMLID_403_">
					<g id="XMLID_404_">
						<g id="XMLID_405_">
							<g id="XMLID_406_">
								<g id="XMLID_407_">
									<g id="XMLID_408_">
										<g id="XMLID_409_">
											<path id="XMLID_410_" fill="#FFFFFF" d="M805.6,211.5l-38.4-7.9c22.9-0.6,37,2,45.5,4.9c8.5-2.9,22.5-5.4,45.5-4.9
												l-38.4,7.9c3.9,2.2,5,3.9,5,3.9l-12.1-2.5l-12.1,2.5C800.6,215.4,801.8,213.7,805.6,211.5z"/>
										</g>
									</g>
								</g>
							</g>
						</g>
					</g>
				</g>
			</g>
			<g id="XMLID_393_">
				<g id="XMLID_394_">
					<g id="XMLID_395_">
						<g id="XMLID_396_">
							<g id="XMLID_397_">
								<g id="XMLID_398_">
									<g id="XMLID_399_">
										<g id="XMLID_400_">
											<path id="XMLID_401_" fill="#FFFFFF" d="M988.1,170.5l-75.4-15.6c45-1.1,72.6,3.9,89.2,9.6c16.6-5.6,44.2-10.6,89.2-9.6
												l-75.4,15.6c7.6,4.3,9.8,7.7,9.8,7.7l-23.7-4.9l-23.7,4.9C978.3,178.3,980.5,174.8,988.1,170.5z"/>
										</g>
									</g>
								</g>
							</g>
						</g>
					</g>
				</g>
			</g>
		</g>
		<g id="XMLID_10_">
			<g id="XMLID_383_">
				<g id="XMLID_384_">
					<g id="XMLID_385_">
						<g id="XMLID_386_">
							<g id="XMLID_387_">
								<g id="XMLID_388_">
									<g id="XMLID_389_">
										<g id="XMLID_390_">
											<path id="XMLID_391_" fill="#FFFFFF" d="M840.2,226.7l-56.4-11.7c33.7-0.8,54.4,2.9,66.8,7.2c12.4-4.2,33.1-8,66.8-7.2
												l-56.4,11.7c5.7,3.2,7.4,5.8,7.4,5.8l-17.7-3.7l-17.7,3.7C832.8,232.5,834.5,229.9,840.2,226.7z"/>
										</g>
									</g>
								</g>
							</g>
						</g>
					</g>
				</g>
			</g>
			<g id="XMLID_374_">
				<g id="XMLID_375_">
					<g id="XMLID_376_">
						<g id="XMLID_377_">
							<g id="XMLID_378_">
								<g id="XMLID_379_">
									<g id="XMLID_380_">
										<g id="XMLID_381_">
											<path id="XMLID_382_" fill="#FFFFFF" d="M933.4,377.9L877,366.3c33.7-0.8,54.4,2.9,66.8,7.2c12.4-4.2,33.1-8,66.8-7.2
												l-56.4,11.7c5.7,3.2,7.4,5.8,7.4,5.8l-17.7-3.7l-17.7,3.7C926,383.7,927.7,381.1,933.4,377.9z"/>
										</g>
									</g>
								</g>
							</g>
						</g>
					</g>
				</g>
			</g>
			<g id="XMLID_365_">
				<g id="XMLID_366_">
					<g id="XMLID_367_">
						<g id="XMLID_368_">
							<g id="XMLID_369_">
								<g id="XMLID_370_">
									<g id="XMLID_371_">
										<g id="XMLID_372_">
											<path id="XMLID_373_" fill="#FFFFFF" d="M793.2,340l-56.4-11.7c33.7-0.8,54.4,2.9,66.8,7.2c12.4-4.2,33.1-8,66.8-7.2
												L813.9,340c5.7,3.2,7.4,5.8,7.4,5.8l-17.7-3.7l-17.7,3.7C785.8,345.8,787.5,343.2,793.2,340z"/>
										</g>
									</g>
								</g>
							</g>
						</g>
					</g>
				</g>
			</g>
			<g id="XMLID_356_">
				<g id="XMLID_2_">
					<g id="XMLID_358_">
						<g id="XMLID_3_">
							<g id="XMLID_360_">
								<g id="XMLID_361_">
									<g id="XMLID_362_">
										<g id="XMLID_363_">
											<path id="XMLID_364_" fill="#FFFFFF" d="M913.3,289l-22.3-4.6c13.3-0.3,21.5,1.2,26.4,2.8c4.9-1.7,13.1-3.2,26.4-2.8
												l-22.3,4.6c2.3,1.3,2.9,2.3,2.9,2.3l-7-1.4l-7,1.4C910.4,291.3,911,290.3,913.3,289z"/>
										</g>
									</g>
								</g>
							</g>
						</g>
					</g>
				</g>
			</g>
			<g id="XMLID_347_">
				<g id="XMLID_348_">
					<g id="XMLID_349_">
						<g id="XMLID_350_">
							<g id="XMLID_351_">
								<g id="XMLID_352_">
									<g id="XMLID_1_">
										<g id="XMLID_354_">
											<path id="XMLID_355_" fill="#FFFFFF" d="M658.9,233.7l-22.3-4.6c13.3-0.3,21.5,1.2,26.4,2.8c4.9-1.7,13.1-3.2,26.4-2.8
												l-22.3,4.6c2.3,1.3,2.9,2.3,2.9,2.3l-7-1.4l-7,1.4C655.9,236,656.6,235,658.9,233.7z"/>
										</g>
									</g>
								</g>
							</g>
						</g>
					</g>
				</g>
			</g>
			<g id="XMLID_338_">
				<g id="XMLID_339_">
					<g id="XMLID_340_">
						<g id="XMLID_341_">
							<g id="XMLID_342_">
								<g id="XMLID_343_">
									<g id="XMLID_344_">
										<g id="XMLID_345_">
											<path id="XMLID_346_" fill="#FFFFFF" d="M1015.3,216.2l-22.3-4.6c13.3-0.3,21.5,1.2,26.4,2.8c4.9-1.7,13.1-3.2,26.4-2.8
												l-22.3,4.6c2.3,1.3,2.9,2.3,2.9,2.3l-7-1.4l-7,1.4C1012.4,218.4,1013.1,217.4,1015.3,216.2z"/>
										</g>
									</g>
								</g>
							</g>
						</g>
					</g>
				</g>
			</g>
			<g id="XMLID_329_">
				<g id="XMLID_330_">
					<g id="XMLID_331_">
						<g id="XMLID_332_">
							<g id="XMLID_333_">
								<g id="XMLID_334_">
									<g id="XMLID_335_">
										<g id="XMLID_336_">
											<path id="XMLID_337_" fill="#FFFFFF" d="M1140.7,282l-22.3-4.6c13.3-0.3,21.5,1.2,26.4,2.8c4.9-1.7,13.1-3.2,26.4-2.8
												l-22.3,4.6c2.3,1.3,2.9,2.3,2.9,2.3l-7-1.4l-7,1.4C1137.8,284.3,1138.4,283.3,1140.7,282z"/>
										</g>
									</g>
								</g>
							</g>
						</g>
					</g>
				</g>
			</g>
			<g id="XMLID_320_">
				<g id="XMLID_321_">
					<g id="XMLID_322_">
						<g id="XMLID_323_">
							<g id="XMLID_324_">
								<g id="XMLID_325_">
									<g id="XMLID_326_">
										<g id="XMLID_327_">
											<path id="XMLID_328_" fill="#FFFFFF" d="M946.7,322.3l-33.9-7c20.3-0.5,32.7,1.8,40.2,4.3c7.5-2.5,19.9-4.8,40.2-4.3
												l-33.9,7c3.4,1.9,4.4,3.5,4.4,3.5l-10.7-2.2l-10.7,2.2C942.2,325.8,943.2,324.2,946.7,322.3z"/>
										</g>
									</g>
								</g>
							</g>
						</g>
					</g>
				</g>
			</g>
			<g id="XMLID_311_">
				<g id="XMLID_312_">
					<g id="XMLID_313_">
						<g id="XMLID_314_">
							<g id="XMLID_315_">
								<g id="XMLID_316_">
									<g id="XMLID_317_">
										<g id="XMLID_318_">
											<path id="XMLID_319_" fill="#FFFFFF" d="M850.4,312l-46.2-9.5c27.6-0.7,44.5,2.4,54.7,5.9c10.2-3.5,27.1-6.5,54.7-5.9
												l-46.2,9.5c4.7,2.6,6,4.7,6,4.7l-14.5-3l-14.5,3C844.4,316.7,845.8,314.6,850.4,312z"/>
										</g>
									</g>
								</g>
							</g>
						</g>
					</g>
				</g>
			</g>
			<g id="XMLID_302_">
				<g id="XMLID_303_">
					<g id="XMLID_304_">
						<g id="XMLID_305_">
							<g id="XMLID_306_">
								<g id="XMLID_307_">
									<g id="XMLID_308_">
										<g id="XMLID_309_">
											<path id="XMLID_310_" fill="#FFFFFF" d="M776.7,295.1L708.1,281c40.9-1,66,3.6,81.1,8.7c15.1-5.1,40.2-9.7,81.1-8.7
												l-68.5,14.2c6.9,3.9,8.9,7,8.9,7l-21.5-4.4l-21.5,4.4C767.7,302.2,769.8,299,776.7,295.1z"/>
										</g>
									</g>
								</g>
							</g>
						</g>
					</g>
				</g>
			</g>
			<g id="XMLID_293_">
				<g id="XMLID_294_">
					<g id="XMLID_295_">
						<g id="XMLID_296_">
							<g id="XMLID_297_">
								<g id="XMLID_298_">
									<g id="XMLID_299_">
										<g id="XMLID_300_">
											<path id="XMLID_301_" fill="#FFFFFF" d="M649.4,269.9l-68.5-14.2c40.9-1,66,3.6,81.1,8.7c15.1-5.1,40.2-9.7,81.1-8.7
												l-68.5,14.2c6.9,3.9,8.9,7,8.9,7l-21.5-4.4l-21.5,4.4C640.5,276.9,642.5,273.8,649.4,269.9z"/>
										</g>
									</g>
								</g>
							</g>
						</g>
					</g>
				</g>
			</g>
			<g id="XMLID_284_">
				<g id="XMLID_285_">
					<g id="XMLID_286_">
						<g id="XMLID_287_">
							<g id="XMLID_288_">
								<g id="XMLID_289_">
									<g id="XMLID_290_">
										<g id="XMLID_291_">
											<path id="XMLID_292_" fill="#FFFFFF" d="M1006.9,284.5l-68.5-14.2c40.9-1,66,3.6,81.1,8.7c15.1-5.1,40.2-9.7,81.1-8.7
												l-68.5,14.2c6.9,3.9,8.9,7,8.9,7l-21.5-4.4l-21.5,4.4C997.9,291.5,1000,288.3,1006.9,284.5z"/>
										</g>
									</g>
								</g>
							</g>
						</g>
					</g>
				</g>
			</g>
			<g id="XMLID_20_">
				<g id="XMLID_21_">
					<g id="XMLID_22_">
						<g id="XMLID_23_">
							<g id="XMLID_24_">
								<g id="XMLID_26_">
									<g id="XMLID_27_">
										<g id="XMLID_28_">
											<path id="XMLID_29_" fill="#FFFFFF" d="M623.4,312.1l-48.3-10c28.8-0.7,46.5,2.5,57.1,6.1c10.6-3.6,28.3-6.8,57.1-6.1
												l-48.3,10c4.9,2.7,6.3,5,6.3,5l-15.2-3.1l-15.2,3.1C617.1,317.1,618.5,314.8,623.4,312.1z"/>
										</g>
									</g>
								</g>
							</g>
						</g>
					</g>
				</g>
			</g>
			<g id="XMLID_11_">
				<g id="XMLID_12_">
					<g id="XMLID_13_">
						<g id="XMLID_14_">
							<g id="XMLID_15_">
								<g id="XMLID_16_">
									<g id="XMLID_17_">
										<g id="XMLID_18_">
											<path id="XMLID_19_" fill="#FFFFFF" d="M852.6,260.6L757.9,241c56.6-1.4,91.2,4.9,112.1,12c20.9-7.1,55.5-13.4,112.1-12
												l-94.7,19.6c9.6,5.4,12.4,9.7,12.4,9.7l-29.7-6.1l-29.7,6.1C840.3,270.3,843.1,266,852.6,260.6z"/>
										</g>
									</g>
								</g>
							</g>
						</g>
					</g>
				</g>
			</g>
		</g>
	</g>
	<g id="XMLID_357_">
		<polygon id="XMLID_359_" fill="#7895A4" points="1358.3,778.7 1358.3,717.3 1343.4,725.7 1342.2,842.5 1314,842.5 1314,795 
			1297,788.9 1297,689.6 1269.9,689.6 1269.9,601.4 1248.5,613.5 1246.8,781.3 1235.3,781.3 1235.3,778.7 1216.4,778.7 
			1216.4,717.3 1206.3,723 1206.3,713 1172.7,700.9 1172.7,760.8 1155.9,760.8 1155.9,662.3 1133.6,662.3 1133.6,689.6 1128,689.6 
			1128,601.4 1106.6,613.5 1104.9,781.3 1064.4,781.3 1064.4,713 1030.8,700.9 1030.8,760.8 1014,760.8 1014,662.3 991.7,662.3 
			991.7,760.8 983,760.8 983,699.3 956.8,699.3 956.8,613.9 936.1,625.7 934.5,787.9 895.3,787.9 895.3,721.9 871.6,713.4 
			871.6,575.6 834,575.6 834,453 804.3,469.9 802,702.9 785.9,702.9 785.9,699.3 759.7,699.3 759.7,613.9 745.7,621.9 745.7,608 
			699,591.2 699,674.4 675.7,674.4 675.7,537.6 644.8,537.6 644.8,575.6 637,575.6 637,453 607.2,469.9 604.9,702.9 549.5,702.9 
			549.5,687.6 548.6,688.1 548.6,608 501.9,591.2 501.9,674.4 478.6,674.4 478.6,537.6 447.7,537.6 447.7,656.9 426.7,656.9 
			426.7,558.8 397,572.3 394.7,758.8 378.6,758.8 378.6,755.9 352.5,755.9 352.5,687.6 338.4,694 338.4,682.9 291.7,669.4 
			291.7,736.1 268.4,736.1 268.4,626.5 237.5,626.5 237.5,656.9 229.7,656.9 229.7,558.8 199.9,572.3 197.6,758.8 141.3,758.8 
			141.3,682.9 94.6,669.4 94.6,736.1 71.3,736.1 71.3,626.5 40.4,626.5 40.4,736.1 28.3,736.1 28.3,970 212.2,970 225.3,970 
			267.3,970 378.6,970 409.3,970 435.6,970 464.4,970 575.7,970 619.5,970 632.6,970 674.6,970 708.1,970 717.6,970 747.8,970 
			785.9,970 816.6,970 828,970 850,970 871.6,970 889.7,970 969.9,970 983,970 1115.4,970 1124.9,970 1155.1,970 1235.3,970 
			1257.3,970 1297,970 1377.2,970 1377.2,778.7 		"/>
	</g>
	<path fill="#FFFFFF" d="M959,651.5l0.8,7.6h-4.4L959,651.5z M933.2,705l5.2,68.1h-3.5v-15.3h-27.1L933.2,705z M612.6,387.6
		c0,0.1,0,0.2,0,0.3c0-0.1-0.1-0.2-0.1-0.3L612.6,387.6z"/>
	<g>
		<path fill="#92D7E7" d="M911.8,644.4L871,658.9l-6.8-3.6l30.4-23.6l48-13.2l3.9-9.8l-21.2,5.5l-20.3,2.7l-22.9,7.2l24.4-16.8
			l24.4-3l3.8-7.6h10.3l3.8-8.8l-50.3-1.5L858.2,602l-6.9-3.4l29.7-24.4l47.6-14.5l3.6-9.9l-55.2,16l-40.3,31.2l-65.5,80.8
			L608.9,726l-15.3-28.9l-3.5-6.6l0,0l-53.8-101.7l0,0l-8-15.2l0,0l-22.9-43.2l0,0l-1-2l17-37.1l-11.5-15
			c8.6-13,49.4-73.1,73.3-78.6c26.8-6.2,54.9,22.5,54.9,22.5l20,5.6l-2.2-39l11.5-19.3c0,0-1.6-12.2,5-18.4
			c6.6-6.2,30.9,0.9,30.9,0.9l6.6-3.4c-3.8-4.5-7.1-8.8-10-13c2.3-6.3,3.6-15.7,3.6-24.8c0-15.6-3.6-32.1-10.2-32.1
			c-5,0-8.3,9.4-9.6,20.7c-0.5-0.6-1.1-1-1.9-1.1c-5.9-23.2,2-35.8,2-35.8l-14.6-56.6c0.1-1,0.3-2,0.4-3c0-0.3,0-0.6,0.1-0.9
			c0.1-0.6,0.1-1.3,0.1-1.9c0-0.4,0-0.7,0-1.1c0-0.5,0-1.1,0-1.6c0-0.4,0-0.7,0-1.1c0-0.5,0-1-0.1-1.4c0-0.4-0.1-0.7-0.1-1
			c0-0.4-0.1-0.9-0.1-1.3c0-0.3-0.1-0.7-0.2-1c-0.1-0.4-0.1-0.8-0.2-1.2c-0.1-0.3-0.1-0.6-0.2-0.9c-0.1-0.4-0.2-0.8-0.3-1.2
			c-0.1-0.3-0.2-0.6-0.3-0.9c-0.1-0.4-0.2-0.7-0.3-1.1c-0.1-0.3-0.2-0.5-0.3-0.8c-0.1-0.3-0.3-0.7-0.4-1c-0.1-0.3-0.2-0.5-0.4-0.8
			c-0.2-0.3-0.3-0.7-0.5-1c-0.1-0.2-0.3-0.5-0.4-0.7c-0.2-0.3-0.4-0.6-0.6-0.9c-0.1-0.2-0.3-0.4-0.5-0.6c-0.2-0.3-0.4-0.6-0.6-0.8
			c-0.2-0.2-0.3-0.4-0.5-0.6c-0.2-0.3-0.5-0.5-0.7-0.8c-0.2-0.2-0.3-0.3-0.5-0.5c-0.3-0.3-0.5-0.5-0.8-0.7c-0.2-0.2-0.4-0.3-0.5-0.4
			c-0.3-0.2-0.6-0.5-0.8-0.7c-0.2-0.1-0.4-0.3-0.5-0.4c-0.3-0.2-0.6-0.4-0.9-0.6c-0.2-0.1-0.4-0.2-0.6-0.3c-0.3-0.2-0.6-0.4-1-0.6
			c-0.2-0.1-0.4-0.2-0.6-0.3c-0.3-0.2-0.7-0.4-1.1-0.5c-0.2-0.1-0.4-0.2-0.6-0.3c-0.4-0.2-0.8-0.3-1.1-0.5c-0.2-0.1-0.4-0.1-0.5-0.2
			c-0.4-0.2-0.8-0.3-1.2-0.4c-0.2-0.1-0.4-0.1-0.5-0.2c-0.4-0.1-0.9-0.3-1.3-0.4c-0.2,0-0.3-0.1-0.5-0.1c-0.5-0.1-0.9-0.2-1.4-0.3
			c-0.2,0-0.3-0.1-0.5-0.1c-0.5-0.1-1-0.2-1.5-0.3c-0.2,0-0.3-0.1-0.5-0.1c-0.5-0.1-1-0.2-1.5-0.2c-0.1,0-0.3,0-0.4-0.1
			c-0.5-0.1-1.1-0.1-1.6-0.2c-0.1,0-0.3,0-0.4,0c-0.6-0.1-1.1-0.1-1.7-0.1c-0.1,0-0.2,0-0.3,0c-0.6,0-1.2-0.1-1.8-0.1
			c-0.1,0-0.2,0-0.3,0c-0.6,0-1.2,0-1.9,0c-0.1,0-0.2,0-0.2,0c-0.6,0-1.3,0-1.9,0c-0.1,0-0.1,0-0.2,0c-0.7,0-1.3,0-2,0.1
			c0,0-0.1,0-0.1,0c-0.7,0-1.4,0.1-2.1,0.1c0,0,0,0-0.1,0c-23.6,1.8-49,12.3-49,12.3s-39.3-1.9-77.4,11.2
			c-25.1,8.6-27.4,38.8-26.1,58.2c-15.6-2.1-35-1-44.5,13.5c-17.3,26.7,27.1,77.2,14.5,95.5c-12.6,18.3-62.3,7.5-77.2,25.7
			c-12.9,15.7,7.5,46,13.4,54.1c-4.7,3.7-9.5,7.6-14.2,11.7c-0.1,0.1-0.1,0.1-0.2,0.1c-1.7,1.5-3.4,3-5.1,4.5c0,0,0,0,0,0l0,0
			c-15.5,13.8-31.1,29.4-46.6,46.6l0,0c0,0,0,0,0,0c-1.5,1.7-3.1,3.4-4.6,5.1c0,0,0,0,0,0c-1.5,1.7-3.1,3.5-4.6,5.2c0,0,0,0,0,0l0,0
			c-17.2,19.7-34.2,41-51,63.3c0,0,0,0,0,0l0,0c-66.9,89.3-128.6,194.6-171.3,272.8l0,0c0,0,0,0,0,0c-1.2,2.2-2.4,4.5-3.6,6.6
			c0,0,0,0,0,0c-1.2,2.2-2.4,4.3-3.5,6.5c0,0,0,0,0,0l0,0c-13.5,25-24.8,46.7-33.4,63.6l0,0c0,0,0,0,0,0c-2.5,4.9-4.8,9.5-6.8,13.5
			c0,0,0,0,0,0l0,0c-7.8,15.5-12.1,24.4-12.1,24.4l41.1,1.8l9,0.4l0,0l85.6,3.7l0,0l1.6,0.1l102,4.4l0,0l15,0.7l18.7,0.8l1.8-4
			l354.4,4c0,0,61.8-51.9,13.8-102.8C638.9,839.1,452,888,321,927.6l40.8-88.8l0,0l6.5-14.1l0,0l30.8-67l0,0l6.5-14.1l0,0l14-30.4
			c0.1,0.2,0.2,0.3,0.2,0.5l0,0c0,0,0,0,0,0c2.6,5.2,5.2,10.3,7.9,15.3c0,0,0,0,0,0l0,0c8.2,15.1,17,29.1,26.3,41.3l0,0c0,0,0,0,0,0
			c0.6,0.8,1.2,1.5,1.8,2.3l0,0c0,0,0,0,0,0c1.2,1.5,2.4,3,3.7,4.5c0.1,0.1,0.2,0.2,0.2,0.3c0.8,0.9,1.6,1.9,2.4,2.8
			c0.2,0.2,0.3,0.4,0.5,0.6c2.8,3.1,5.5,6.1,8.4,8.8c0.1,0.1,0.2,0.2,0.3,0.3c0.6,0.5,1.1,1.1,1.7,1.6c0.1,0.1,0.3,0.2,0.4,0.4
			c0.5,0.5,1.1,1,1.6,1.5c0.1,0.1,0.3,0.3,0.4,0.4c0.5,0.5,1.1,1,1.6,1.4c0.1,0.1,0.3,0.2,0.4,0.3c0.6,0.5,1.1,1,1.7,1.4
			c0.1,0.1,0.1,0.1,0.2,0.2c1.9,1.6,3.9,3,5.8,4.4c0.1,0,0.1,0.1,0.2,0.1c0.5,0.4,1,0.7,1.5,1c0.2,0.2,0.5,0.3,0.7,0.5
			c0.5,0.3,0.9,0.6,1.4,0.9c0.3,0.2,0.6,0.4,0.8,0.5c0.4,0.3,0.9,0.5,1.3,0.8c0.3,0.2,0.6,0.4,0.9,0.5c0.4,0.2,0.8,0.5,1.3,0.7
			c0.3,0.2,0.7,0.4,1,0.5c0.4,0.2,0.8,0.4,1.2,0.7c0.4,0.2,0.7,0.4,1.1,0.5c0.4,0.2,0.8,0.4,1.2,0.6c0.4,0.2,0.8,0.3,1.1,0.5
			c0.4,0.2,0.8,0.3,1.1,0.5c0.5,0.2,1.1,0.4,1.6,0.7c0.5,0.2,0.9,0.4,1.4,0.6c0.5,0.2,1,0.4,1.5,0.6c0.3,0.1,0.7,0.2,1,0.3
			c0.5,0.2,0.9,0.3,1.4,0.4c0.3,0.1,0.7,0.2,1,0.3c0.4,0.1,0.9,0.3,1.3,0.4c0.3,0.1,0.7,0.2,1,0.3c0.4,0.1,0.9,0.2,1.4,0.3
			c0.3,0.1,0.7,0.2,1,0.2c0.5,0.1,0.9,0.2,1.4,0.3c0.3,0.1,0.7,0.1,1,0.2c0.5,0.1,1,0.1,1.5,0.2c0.3,0,0.6,0.1,1,0.1
			c0.5,0.1,1.1,0.1,1.6,0.2c0.3,0,0.5,0.1,0.8,0.1c0.8,0.1,1.6,0.1,2.4,0.1c30.2,1.1,50.9-3.9,65.2-11.7l22,27.2l186.2-77.3
			l122.8-71.4l17.2-2.2l5.1-7.1l-23.3,2.4l-23.1,6.6l24.8-16.1l24.5-2.4l4-7.5l10.3,0.3l4-8.7L911.8,644.4z M496.7,320
			c15.5,20.2,36,37.2,43.3,43c0,0,0,0,0,0c0.2,0.1,0.3,0.3,0.5,0.4c0,0,0.1,0.1,0.1,0.1c0.2,0.1,0.3,0.2,0.4,0.3
			c0,0,0.1,0.1,0.1,0.1c0.1,0.1,0.2,0.2,0.4,0.3c0,0,0.1,0.1,0.1,0.1c0.1,0.1,0.2,0.1,0.3,0.2c0.1,0,0.1,0.1,0.1,0.1
			c0.1,0,0.1,0.1,0.2,0.1c0,0,0.1,0.1,0.1,0.1c0,0,0.1,0.1,0.1,0.1c0,0,0,0,0.1,0c0.1,0.1,0.1,0.1,0.1,0.1
			c-18.6,20.2-36.3,31.2-51,37.2L496.7,320z M693.2,279.4c3.2,0,7.7,11.2,7.7,29.5c0,9.5-1.2,17-2.8,22.1
			c-5.7-8.4-9.7-16.1-12.6-23.1C685.7,290.2,690.1,279.4,693.2,279.4z M683.2,301.3c0,0.1,0,0.2,0,0.4c0-0.1-0.1-0.2-0.1-0.3
			L683.2,301.3z M782.1,732.3l-169.8,45.3c0.3-0.7,0.7-1.5,1-2.2l172.1-77l54.8-33.9L782.1,732.3z"/>
		<g>
			<path fill="#335C64" d="M187.6,969.2c0,0,430.5-148.5,478.5-97.6c48,50.9-13.8,102.8-13.8,102.8L187.6,969.2z"/>
			<path fill="#8E572A" d="M497.3,255.1c0,0-50.6-18.7-67.9,8s27.1,77.2,14.5,95.5s-62.3,7.5-77.2,25.7s15,56.2,15,56.2L487,422.2
				L497.3,255.1z"/>
			<path fill="#FFFFFF" d="M689.8,276.8c-6.7,0-10.2,16.5-10.2,32.1s3.6,32.1,10.2,32.1c6.7,0,10.2-16.5,10.2-32.1
				S696.4,276.8,689.8,276.8z M689.8,279.4c3.2,0,7.7,11.2,7.7,29.5c0,18.3-4.5,29.5-7.7,29.5c-3.2,0-7.7-11.2-7.7-29.5
				C682.1,290.6,686.6,279.4,689.8,279.4z"/>
			<path fill="#F0D0B4" d="M660.9,185.4l19.4,75.1c0,0-19.7,31.5,26.2,86.1l-6.6,3.4c0,0-24.3-7.2-30.9-0.9s-5,18.4-5,18.4
				l-11.5,19.3l2.2,39l-20-5.6c0,0-28.1-28.7-54.9-22.5c-26.8,6.2-74.9,81.1-74.9,81.1l-56.8-70.5c0,0,42.4,9.4,91.1-43.4L493,264.9
				l23.1-58.7L660.9,185.4z"/>
			<path fill="#ECC19C" d="M652.5,386.9l11.5-19.3c0,0-1.6-12.2,5-18.4c6.6-6.2,30.9,0.9,30.9,0.9l6.6-3.4
				c-45.9-54.6-26.2-86.1-26.2-86.1l-19.4-75.1l-33.2,4.8l26.8,81.6l-11.4,38.8c0,0,5.3,2-4.8,24.3c-10.1,22.3,4.8,76.6,4.8,76.6
				l-85.4-51.4l-74.4,92.2l21.5,26.8c0,0,48.1-74.9,74.9-81.1c26.8-6.2,54.9,22.5,54.9,22.5l20,5.6L652.5,386.9z"/>
			<path fill="#A46C35" d="M665.7,203.9l-32.8-7.1c0,0,20.6,48.7-15.6,71.8c0,0,12.5,45.6-8.1,55.5c-20.6,10,0,23.1,0,23.1
				s-8.1,11.2-22.5,0s0-27.5,0-27.5l-25.6-5.6c0,0-5,38.1,16.2,40.6l-38.1,10.3c0,0-76.8-57.7-63-98.3c0,0-14.4-62.4,23.7-75.5
				s77.4-11.2,77.4-11.2S674.9,139.5,665.7,203.9z"/>
			<path fill="#8E572A" d="M624.1,167.9c-10.5,33.8-36.7,93.9-90.1,98.3l43.3,15.4c0,0-59.6,22.8-102.6-1.9
				c2.7,38.9,64.6,85.4,64.6,85.4l38.1-10.3c-21.2-2.5-16.2-40.6-16.2-40.6l25.6,5.6c0,0-14.4,16.2,0,27.5c14.4,11.2,22.5,0,22.5,0
				s-20.6-13.1,0-23.1c20.6-10,8.1-55.5,8.1-55.5c36.2-23.1,15.6-71.8,15.6-71.8l32.8,7.1C670.3,171.3,647.6,165.6,624.1,167.9z"/>
			<path fill="#E0E9ED" d="M448.1,400.4l69.9,91.1L296.1,974.4l-273-11.9C23.1,962.5,266.5,455.3,448.1,400.4z"/>
			<polygon fill="#ADC6B9" points="56.6,964 296.1,974.4 518,491.5 501.7,470.3 			"/>
			<g>
				<path fill="#EF9AA7" d="M168.4,700.6c-2.6,4.1-5.2,8.3-7.7,12.4l160.5,206.7l6.5-14.1L168.4,700.6z"/>
				<path fill="#EF9AA7" d="M82.5,847.9c-2.4,4.5-4.8,8.9-7.1,13.2l83.4,107.4l18,0.8L82.5,847.9z"/>
				<path fill="#EF9AA7" d="M124.6,773.2c-2.5,4.3-5,8.6-7.4,12.8l145.2,186.9l18,0.8L124.6,773.2z"/>
				<path fill="#EF9AA7" d="M73.1,964.7L42,924.6c-2.5,4.9-4.8,9.5-6.9,13.5l20,25.8L73.1,964.7z"/>
				<path fill="#EF9AA7" d="M314,501.3c-3.1,3.4-6.2,6.9-9.3,10.4l128.1,165l6.5-14.1L314,501.3z"/>
				<path fill="#EF9AA7" d="M371,445.8c-3.5,2.9-6.9,5.9-10.4,9l109.5,141l6.5-14.1L371,445.8z"/>
				<path fill="#EF9AA7" d="M438.4,403.7c-4.3,1.7-8.6,3.5-13,5.7l81.9,105.4l6.5-14.1L438.4,403.7z"/>
				<path fill="#EF9AA7" d="M262.3,563.8c-2.9,3.7-5.7,7.5-8.6,11.3l141.9,182.7l6.5-14.1L262.3,563.8z"/>
				<path fill="#EF9AA7" d="M214.1,630.6c-2.7,4-5.4,8-8.1,11.9l152.4,196.2l6.5-14.1L214.1,630.6z"/>
			</g>
			<polygon fill="#DFB28B" points="571.4,787.7 778.7,732.3 846.4,653.4 887.5,623.2 943.1,608.7 939.2,618.5 891.2,631.7 
				860.9,655.3 867.6,658.9 908.4,644.4 958.7,647.3 954.6,655.9 944.3,655.6 940.3,663.2 915.8,665.5 891,681.6 914.1,675 
				937.4,672.6 932.2,679.7 915,681.9 792.2,753.3 606,830.5 			"/>
			<polygon fill="#F0D0B4" points="562.2,738.8 767.9,677.9 833.5,597.1 873.7,565.8 928.9,549.8 925.3,559.7 877.7,574.2 
				848,598.6 854.8,602 895.2,586.4 945.5,587.9 941.7,596.7 931.4,596.7 927.6,604.3 903.2,607.4 878.8,624.1 901.7,616.9 
				924.9,613.9 920,621.1 902.8,623.8 782,698.4 598,780.8 			"/>
			<g>
				<path fill="#ECC19C" d="M567.8,737.2l-5.7,1.7l3.2,3.7C566.1,741,566.9,739.2,567.8,737.2z"/>
				<polygon fill="#ECC19C" points="925.3,559.7 928.9,549.8 873.7,565.8 877.7,574.2 				"/>
				<polygon fill="#ECC19C" points="569.4,747.3 598,780.8 782,698.4 902.8,623.8 784.9,687.4 				"/>
				<polygon fill="#ECC19C" points="895.2,586.4 898.1,593.6 904.9,593.6 903.2,607.4 927.6,604.3 931.4,596.7 941.7,596.7 
					945.5,587.9 				"/>
				<polygon fill="#ECC19C" points="902.8,623.8 920,621.1 924.9,613.9 901.7,616.9 				"/>
			</g>
			<path fill="#E0E9ED" d="M343.9,492.8c0,0,64.7,318.3,174.9,322.2C629,819,614,742,614,742L448.1,428.7L343.9,492.8z"/>
			<path fill="#ADC6B9" d="M614,742L448.1,428.7l-3,1.9l3,8c0,0,104.3,275.5,4.1,334.1c19.8,25,42.1,41.5,66.6,42.4
				C629,819,614,742,614,742z"/>
			<path fill="#8E572A" d="M638.4,286.9c0,0,17.9-19.1,32.4-14.5v-6.2C670.8,266.3,657.2,264.1,638.4,286.9z"/>
			<polygon fill="#543E36" points="643.1,310.6 660.6,303.5 656.9,314.4 			"/>
			
				<rect x="583.5" y="193.9" transform="matrix(0.6154 0.7882 -0.7882 0.6154 388.6187 -398.9872)" fill="#F5E0CD" width="39.2" height="9.5"/>
			
				<rect x="568" y="206" transform="matrix(0.6154 0.7882 -0.7882 0.6154 392.1922 -382.1275)" fill="#F5E0CD" width="39.2" height="9.5"/>
			<path fill="#FFFFFF" d="M678.2,296.4c-1.2-0.1-2.4,0.8-3.4,1.9c-3-15.5-10-26.1-18.3-26.1c-10.2,0-18.3,15.7-19.6,36.8h-37v5.4
				h36.8c0,0.2,0,0.4,0,0.6c0,24,8.7,42.8,19.8,42.8c11.1,0,19.8-18.8,19.8-42.8c0-4.7-0.3-9.3-1-13.5c1-1.7,2.1-2.9,2.7-2.8
				c0.3,0,0.9,0.6,1.5,2.7l2.2-0.6C681.4,299.7,680.5,296.5,678.2,296.4z M656.5,354.1c-8.8,0-16.2-17.9-16.2-39.2
				c0-21.2,7.4-39.2,16.2-39.2c8.8,0,16.2,17.9,16.2,39.2C672.7,336.2,665.3,354.1,656.5,354.1z"/>
			<g>
				<path fill="#EF9AA7" d="M594.8,705.7l-8-15.2l-136.3,79.8c3.6,4.7,7.4,9.2,11.2,13.3L594.8,705.7z"/>
				<path fill="#EF9AA7" d="M355.1,540l116-67.9l-8-15.2l-112.3,65.8C352,527.9,353.5,533.7,355.1,540z"/>
				<path fill="#EF9AA7" d="M502,530.5l-8-15.2l-125.3,73.4c1.7,5.5,3.4,11.1,5.2,16.8L502,530.5z"/>
				<path fill="#EF9AA7" d="M532.9,588.9l-8-15.2l-134.8,78.9c2,5.4,4.1,10.8,6.3,16.2L532.9,588.9z"/>
				<path fill="#EF9AA7" d="M563.9,647.3l-8-15.2l-139.5,81.7c2.6,5.2,5.2,10.3,7.9,15.3L563.9,647.3z"/>
			</g>
		</g>
		<polygon fill="#FFFFFF" points="1160.5,434.6 1146.6,428.7 1003.5,724.5 730.5,724.5 730.5,758.6 1051.7,758.6 1051.7,724.5 
			1020.7,724.5 		"/>
		<path fill="#335C64" d="M638,754.8h160.8C651.7,661.1,638,754.8,638,754.8z"/>
		<g>
			<polygon fill="#FFFFFF" points="1038.9,611.7 1038.9,632.6 1042.7,632.6 1042.7,648.9 1048.6,648.9 1056.5,752.3 1134.2,752.3 
				1142.1,648.9 1148,648.9 1148,632.6 1151.8,632.6 1151.8,611.7 			"/>
			<polygon fill="#FFF197" points="1049.1,655.3 1056.5,752.3 1134.2,752.3 1141.6,655.3 			"/>
			<polygon fill="#EEDC89" points="1118.1,752.3 1134.2,752.3 1141.6,655.3 1118.1,655.3 			"/>
			<g>
				<polygon fill="#FFFFFF" points="1083.5,644.5 1076.9,579.9 1023.6,545 1026.9,540 1082.5,576.5 1089.5,643.9 				"/>
			</g>
			<rect x="1042.7" y="632.6" fill="#C3D4CA" width="105.2" height="16.5"/>
		</g>
		<g>
			<rect x="556.3" y="783.1" fill="#89714E" width="709.9" height="82.3"/>
			<g>
				<polygon fill="#9C8156" points="960,974.4 1113.2,974.4 794.3,768.9 641.1,768.9 				"/>
				<polygon fill="#92D7E7" points="880,974.4 726.9,974.4 1045.8,768.9 1199,768.9 				"/>
				<polygon fill="#9C8156" points="874.3,974.4 721.1,974.4 1040.1,768.9 1193.2,768.9 				"/>
			</g>
			<rect x="521.8" y="742" fill="#9C8156" width="778.8" height="63.4"/>
		</g>
	</g>
	<path fill="#FFFFFF" d="M0,0v980h1400V0H0z M1371.7,891.9c0,37.8-30.6,68.4-68.4,68.4H96.6c-37.8,0-68.4-30.6-68.4-68.4V88.1
		c0-37.8,30.6-68.4,68.4-68.4h1206.7c37.8,0,68.4,30.6,68.4,68.4V891.9z"/>
</g>
</svg>
